<?xml version="1.0" standalone="no"?>
<svg xmlns="http://www.w3.org/2000/svg" viewBox="0 0 209.568 36" width="209.568" height="36"><g fill="#4184c5" color="#4184c5" transform="translate(181.568, 3.9999999999999982) scale(0.2800001)"><svg width="100.0" height="100.0" x="0.0" y="0.0" viewBox="0 0 100 100"><g><path fill="currentColor" d="M46.154,3.097c2.376-0.12,4.759-0.125,7.137-0.032C58.662,3.43,63.981,4.622,68.96,6.68   c11.157,4.535,20.542,13.257,25.871,24.058c3.332,6.718,5.172,14.201,5.159,21.707c0.214,10.44-3.126,20.884-9.177,29.38   c-3.58,4.999-8.044,9.398-13.212,12.743l-0.12-0.042c-1.672-2.105-2.944-4.544-3.613-7.154c-0.494-1.568-0.751-3.197-1.062-4.808   c-0.381-0.986-1.588-0.962-2.3-1.579c-1.218-0.941-2.102-2.447-2.13-4c0.193-0.096,0.444-0.078,0.572,0.117   c0.443,0.521,0.741,1.167,1.276,1.613c1.493,1.28,3.516,1.85,5.461,1.731c1.413-0.188,2.898,0.002,4.249-0.549   c2.511-0.874,4.402-2.818,6.472-4.397c0.754-0.509,1.422-1.132,2.111-1.723c0.027-0.056,0.08-0.164,0.105-0.219   c-0.472-0.083-0.928,0.121-1.39,0.192c-1.271,0.219-2.544,0.447-3.832,0.55c-1.891,0.312-3.815,0.386-5.729,0.308   c-0.679-0.072-1.376-0.098-2.02-0.346c-1.299-0.437-2.288-1.448-3.197-2.431c-1.97-2.259-3.412-4.903-5.146-7.335   c-0.853-1.153-1.843-2.272-3.152-2.912c-0.861-0.373-1.781-0.608-2.714-0.701c-0.419,0.013-0.629-0.412-0.92-0.643   c-0.709-0.713-1.74-0.861-2.64-1.207c-0.545-0.22-1.136-0.253-1.715-0.266c-2.662-0.397-5.411-0.012-8.036-0.704   c-1.093-0.349-2.036-1.026-2.986-1.648c-1.322-0.859-2.551-1.859-3.931-2.628c-2.029-0.888-3.244-2.869-5.063-4.064   c-1.209-1.114-2.645-1.938-4.154-2.578c-0.976-0.517-2.077-1.133-2.474-2.229l0.042-0.147c0.784,0.074,1.73,0.367,2.397-0.196   c0.018-0.243-0.167-0.423-0.294-0.605c-0.455-0.554-0.883-1.139-1.447-1.591c-0.779-0.643-1.848-0.859-2.537-1.626   c-1.037-1.216-1.417-2.869-2.54-4.023c-0.595-0.616-1.563-0.458-2.22-0.968c-1.354-0.92-2.378-2.22-3.535-3.359   c-0.602-0.563-0.854-1.371-1.339-2.02c-0.182-0.24-0.525-0.117-0.709,0.051c-0.454,0.398-0.835,0.878-1.179,1.375   c-0.334,0.511-0.202,1.145-0.21,1.717c-0.539-0.107-1.293-0.307-1.59,0.323c-0.348,0.827-0.282,1.853,0.125,2.657   c1.039,1.946,1.122,4.206,1.885,6.25c0.287,1.015,0.856,2.022,0.688,3.106c-0.527,0.941-0.88,1.982-0.937,3.066   c-0.134,2.245,0.05,4.5,0.389,6.72c0.422,1.857,1.125,3.641,1.957,5.353c0.71,1.679,1.972,3.023,3.1,4.425   c0.912,1.164,2.135,2.031,3.099,3.148c0.595,0.675,1.389,1.203,1.812,2.015c0.941,2.568,1.975,5.127,3.463,7.435   c1.779,3.017,2.138,6.654,1.826,10.086c-0.07,0.339-0.101,0.928-0.578,0.902c-1.016-0.029-2.031-0.155-3.041-0.275   c-0.336-0.012-0.722-0.083-0.995,0.168c-0.927,0.672-1.852,1.348-2.782,2.015c-0.294,0.229-0.682,0.109-1.019,0.109   c-1.615-0.074-3.236-0.049-4.835-0.311c-0.595-0.115-1.238-0.132-1.773-0.447c-4.915-4.396-8.994-9.737-11.85-15.686   C1.753,67.996-0.031,60.719,0.01,53.407c-0.232-10.821,3.364-21.644,9.844-30.3c5.846-7.848,14.03-13.95,23.257-17.224   C37.307,4.367,41.716,3.474,46.154,3.097z"></path><path fill="currentColor" d="M42.94,75.73c0.954-1.127,2.509-1.578,3.948-1.482c0.627-0.051,1.261,0.199,1.682,0.668   c0.225,0.289,0.323,0.651,0.461,0.987c0.795,2.048,1.513,4.14,2.554,6.082c0.696,1.087,1.643,1.985,2.598,2.841   c1.183,1.015,2.381,2.017,3.666,2.903c0.551,0.396,1.214,0.697,1.55,1.325c0.555,0.985,0.587,2.152,0.782,3.243   c0.05,0.533,0.256,1.064,0.14,1.604c-0.362,0.044-0.575-0.416-0.951-0.381c-1.606,0.082-3.178,0.473-4.78,0.613   c-0.507,0.021-1.065,0.273-1.534-0.02c-1.314-0.694-2.578-1.479-3.884-2.189c-0.452-0.271-1.002-0.154-1.499-0.137   c-0.942,0.134-1.901,0.204-2.85,0.106c-0.491-0.136-0.984-0.269-1.477-0.396c-0.611-0.17-0.498-0.955-0.536-1.446   c-0.078-0.651,0.219-1.239,0.45-1.825c0.243-1.785-0.049-3.576-0.146-5.36c-0.216-1.753-0.269-3.52-0.315-5.283   C42.75,76.972,42.6,76.284,42.94,75.73z"></path><path fill="currentColor" d="M35.896,74.445c0.594-0.253,1.546-0.248,1.734,0.519c0.888,3.413,1.372,6.916,1.92,10.396   c0.211,1.571,0.045,3.192-0.557,4.665l-0.124,0.088c-1.207-0.202-2.389-0.526-3.583-0.786c-0.429-0.043-0.392-0.552-0.445-0.867   c-0.025-0.924-0.067-1.854,0.103-2.767c0.072-1.279-0.032-2.569,0.157-3.841c0.005-1.476,0.302-2.937,0.194-4.414   c-0.053-0.646-0.709-1.107-0.634-1.779C34.808,75.066,35.345,74.65,35.896,74.445z"></path><path fill="currentColor" d="M61.812,82.574c0.214-0.101,0.443-0.041,0.646,0.057c1.513,0.642,3.04,1.271,4.45,2.122   c0.521,0.311,0.944,0.762,1.303,1.248c1.29,1.694,2.448,3.492,3.444,5.377c0.945,1.793,1.404,3.843,1.275,5.868   c-2.788-0.369-5.514-1.09-8.275-1.609c-0.256-0.074-0.671-0.06-0.704-0.408c-0.296-2.092-0.178-4.222,0.226-6.289   c0.153-0.729-0.541-1.164-0.992-1.593c-1.23-1.192-1.429-3.02-1.438-4.643L61.812,82.574z"></path></g></svg></g><path fill="#000000" fill-rule="nonzero" d="M0.05 17.06L0.05 17.06L0.14 9.24Q0.14 6.10 0.07 4.06Q0 2.02 0 1.82L0 1.82Q0 0.12 1.22 0.12Q2.45 0.12 2.45 1.82L2.45 1.82Q2.45 2.02 2.42 3.05L2.42 3.05Q2.30 6.10 2.30 8.63Q2.30 11.16 2.33 12.59Q2.35 14.02 2.40 15.01Q2.45 16.01 2.45 16.27L2.45 16.27Q3.60 16.39 4.94 16.39Q6.29 16.39 7.56 16.31Q8.83 16.22 9.23 16.22Q9.62 16.22 10.02 16.52Q10.42 16.82 10.42 17.35Q10.42 17.88 10.02 18.18Q9.62 18.48 8.98 18.48L8.98 18.48L5.40 18.36L1.51 18.48Q0.79 18.48 0.42 18.18Q0.05 17.88 0.05 17.06ZM21.44 16.63Q23.95 16.63 25.62 14.42Q27.29 12.22 27.29 9.31Q27.29 6.41 25.63 4.24Q23.98 2.06 21.44 2.06Q18.91 2.06 17.24 4.24Q15.58 6.41 15.58 9.30Q15.58 12.19 17.26 14.41Q18.94 16.63 21.44 16.63ZM27.28 2.71Q29.59 5.42 29.59 9.34Q29.59 13.25 27.25 15.98Q24.91 18.72 21.42 18.72Q17.93 18.72 15.60 15.98Q13.27 13.25 13.27 9.34Q13.27 5.42 15.62 2.71Q17.98 0 21.47 0Q24.96 0 27.28 2.71ZM47.21 13.27L47.21 13.27Q47.21 15.74 45.06 17.23Q42.91 18.72 39.46 18.72L39.46 18.72Q36.67 18.72 34.88 18.16Q33.10 17.59 33.10 16.70Q33.10 15.82 34.30 15.82L34.30 15.82Q34.37 13.34 34.37 9.26Q34.37 5.18 34.27 3.46L34.27 3.46Q33.24 3.14 33.24 2.35L33.24 2.35Q33.24 1.75 33.96 1.27Q34.68 0.79 35.71 0.53L35.71 0.53Q37.78 0 39.43 0Q41.09 0 42.40 0.44Q43.70 0.89 44.42 1.61L44.42 1.61Q45.91 3.02 45.91 4.58L45.91 4.58Q45.91 7.13 43.58 8.54L43.58 8.54Q45.17 9.12 46.19 10.43Q47.21 11.74 47.21 13.27ZM39.38 16.63L39.38 16.63Q41.90 16.63 43.39 15.73Q44.88 14.83 44.88 13.13L44.88 13.13Q44.88 11.78 43.57 10.88Q42.26 9.98 40.78 9.74L40.78 9.74Q39.31 10.08 38.28 10.08Q37.25 10.08 36.55 9.98L36.55 9.98Q36.55 14.38 36.62 16.32L36.62 16.32Q37.63 16.63 39.38 16.63ZM39.38 2.06L39.38 2.06Q37.90 2.06 36.62 2.54L36.62 2.54Q36.55 3.77 36.55 7.82L36.55 7.82Q37.54 7.61 38.54 7.61Q39.55 7.61 40.44 7.80L40.44 7.80Q41.40 7.75 42.56 6.89Q43.73 6.02 43.73 4.61L43.73 4.61Q43.73 3.62 42.66 2.84Q41.59 2.06 39.38 2.06ZM58.62 16.63Q61.13 16.63 62.80 14.42Q64.46 12.22 64.46 9.31Q64.46 6.41 62.81 4.24Q61.15 2.06 58.62 2.06Q56.09 2.06 54.42 4.24Q52.75 6.41 52.75 9.30Q52.75 12.19 54.43 14.41Q56.11 16.63 58.62 16.63ZM64.45 2.71Q66.77 5.42 66.77 9.34Q66.77 13.25 64.43 15.98Q62.09 18.72 58.60 18.72Q55.10 18.72 52.78 15.98Q50.45 13.25 50.45 9.34Q50.45 5.42 52.80 2.71Q55.15 0 58.64 0Q62.14 0 64.45 2.71ZM85.39 8.69L88.63 8.81L91.66 8.66Q92.30 8.66 92.70 8.98Q93.10 9.29 93.10 9.89L93.10 9.89Q93.10 13.97 91.04 16.34Q88.99 18.72 85.64 18.72Q82.30 18.72 80.02 15.98Q77.74 13.25 77.74 9.34Q77.74 5.42 80.09 2.71Q82.44 0 86.04 0L86.04 0Q88.27 0 90.11 0.89Q91.94 1.78 91.94 2.81L91.94 2.81Q91.94 3.26 91.67 3.53Q91.39 3.79 90.85 3.79Q90.31 3.79 89.40 3.14L89.40 3.14Q87.94 2.09 86.04 2.09L86.04 2.09Q83.45 2.09 81.74 4.22Q80.04 6.36 80.04 9.30Q80.04 12.24 81.67 14.44Q83.30 16.63 85.78 16.63L85.78 16.63Q87.82 16.63 89.18 15.12Q90.55 13.61 90.65 10.82L90.65 10.82Q89.86 10.75 88.63 10.75L88.63 10.75L85.39 10.87Q84.74 10.87 84.38 10.58Q84.02 10.30 84.02 9.80Q84.02 9.31 84.38 9Q84.74 8.69 85.39 8.69L85.39 8.69ZM110.09 9.55L110.09 9.55Q110.09 12.24 110.44 14.10Q110.78 15.96 111.29 16.20L111.29 16.20Q111.48 16.30 111.74 16.33Q112.01 16.37 112.13 16.44Q112.25 16.51 112.25 16.70L112.25 16.70Q112.25 17.57 111.77 18.12Q111.29 18.67 110.50 18.67L110.50 18.67Q109.44 18.67 108.91 17.47Q108.38 16.27 108.38 14.40L108.38 14.40Q107.11 16.42 105.71 17.57Q104.30 18.72 102.56 18.72Q100.82 18.72 99.62 17.89Q98.42 17.06 97.70 15.72L97.70 15.72Q96.26 12.96 96.26 9.65L96.26 9.65Q96.26 5.71 98.30 2.86Q100.34 0 103.58 0L103.58 0Q104.83 0 106.02 0.47Q107.21 0.94 108 1.66L108 1.66Q108 0 109.22 0L109.22 0Q110.74 0 110.74 2.42L110.74 2.42Q110.74 4.22 110.09 9.55ZM108.19 9.84L108.19 9.84L108.05 3.96Q106.01 2.09 103.58 2.09L103.58 2.09Q101.59 2.09 100.08 4.24Q98.57 6.38 98.57 9.46Q98.57 12.53 99.61 14.58Q100.66 16.63 102.44 16.63Q104.23 16.63 106.04 14.35Q107.86 12.07 108.19 9.84ZM139.97 7.32L139.97 7.32L139.80 13.13Q139.80 14.04 139.82 14.50Q139.85 14.95 140.02 15.46Q140.18 15.96 140.52 16.10L140.52 16.10Q140.71 16.20 140.98 16.24Q141.24 16.27 141.36 16.34Q141.48 16.42 141.48 16.61L141.48 16.61Q141.48 17.45 140.95 18.01Q140.42 18.58 139.70 18.58L139.70 18.58Q138.48 18.58 138.01 17.62Q137.54 16.66 137.54 14.76L137.54 14.76L137.66 8.06Q137.66 5.45 136.78 3.85Q135.89 2.26 134.30 2.26Q132.72 2.26 131.22 4.37Q129.72 6.48 129.12 9.17L129.12 9.17L129.22 16.92Q129.22 17.74 128.95 18.16Q128.69 18.58 127.99 18.58L127.99 18.58Q126.50 18.58 126.50 16.18Q126.50 13.78 127.15 9.17L127.15 9.17Q127.15 2.26 123.72 2.26L123.72 2.26Q122.18 2.26 120.68 4.37Q119.18 6.48 118.58 9.17L118.58 9.17L118.68 16.92Q118.68 18.58 117.46 18.58L117.46 18.58Q115.97 18.58 115.97 16.18Q115.97 13.78 116.62 9.17L116.62 9.17Q116.62 7.58 116.34 4.91Q116.06 2.23 116.06 1.62Q116.06 1.01 116.40 0.56Q116.74 0.12 117.32 0.12Q117.91 0.12 118.25 0.56Q118.58 1.01 118.58 1.56Q118.58 2.11 118.57 2.89Q118.56 3.67 118.56 4.22L118.56 4.22Q120.77 0.12 124.18 0.12L124.18 0.12Q126.14 0.12 127.38 1.24Q128.62 2.35 129.10 4.22L129.10 4.22Q131.38 0.12 134.74 0.12L134.74 0.12Q137.23 0.12 138.60 2.22Q139.97 4.32 139.97 7.32ZM157.27 5.09L157.27 5.09Q157.27 3.96 156.35 3.02Q155.42 2.09 153.82 2.09Q152.21 2.09 150.98 3.05L150.98 3.05Q148.73 4.80 148.08 8.26L148.08 8.26Q149.90 8.76 152.20 8.76Q154.49 8.76 155.88 7.80Q157.27 6.84 157.27 5.09ZM159 15.82Q159 16.66 157.30 17.69Q155.59 18.72 153.62 18.72Q151.66 18.72 150.19 17.98Q148.73 17.23 147.79 15.98L147.79 15.98Q145.85 13.39 145.70 9.91L145.70 9.91Q143.98 9.38 143.98 8.21L143.98 8.21Q143.98 7.73 144.25 7.45Q144.53 7.18 144.89 7.18Q145.25 7.18 145.90 7.46L145.90 7.46Q146.64 4.25 148.69 2.12Q150.74 0 153.72 0L153.72 0Q156.14 0 157.86 1.46Q159.58 2.93 159.58 4.99Q159.58 7.06 158.52 8.38L158.52 8.38Q156.53 10.80 152.33 10.80L152.33 10.80Q150.60 10.80 148.03 10.32L148.03 10.32Q148.25 12.91 149.75 14.77Q151.25 16.63 153.32 16.63Q155.40 16.63 157.20 15.46L157.20 15.46Q157.99 15.02 158.27 15.02Q158.54 15.02 158.77 15.25Q159 15.48 159 15.82L159 15.82ZM165.46 9.84L165.46 9.84Q165.46 9.84 165.53 16.99L165.53 16.99Q165.53 18.65 164.30 18.65L164.30 18.65Q162.82 18.65 162.82 16.14Q162.82 13.63 163.46 9.12L163.46 9.12Q163.46 7.56 163.19 4.88Q162.91 2.21 162.91 1.61Q162.91 1.01 163.25 0.56Q163.58 0.12 164.17 0.12Q164.76 0.12 165.10 0.56Q165.43 1.01 165.43 1.56Q165.43 2.11 165.42 2.89Q165.41 3.67 165.41 4.20L165.41 4.20Q166.10 2.54 167.54 1.28Q168.98 0.02 170.48 0.02Q171.98 0.02 172.78 0.61Q173.57 1.20 173.57 1.88Q173.57 2.57 173.20 2.96Q172.82 3.36 172.27 3.36Q171.72 3.36 171.06 2.76Q170.40 2.16 169.99 2.16L169.99 2.16Q168.89 2.16 167.38 4.72Q165.86 7.27 165.46 9.84Z" transform="translate(0, 8.64)"></path></svg>