<?xml version="1.0" standalone="no"?>
<svg xmlns="http://www.w3.org/2000/svg" viewBox="0 0 193.28515625 53" width="193.28515625" height="53"><rect fill="none" stroke="#1b5b5d" stroke-width="3" width="190.28515625" height="50" x="1.5" y="1.5"></rect><g fill="#4784e0" color="#4784e0" transform="translate(12, 12) scale(1.8125)"><svg width="16.0" height="16.0" x="0.0" y="0.0" viewBox="0 0 16 16"><g transform="translate(0,-1036.3622)"><path style="color:#000000;clip-rule:nonzero;display:inline;overflow:visible;visibility:visible;opacity:1;isolation:auto;mix-blend-mode:normal;color-interpolation:sRGB;color-interpolation-filters:linearRGB;solid-color:#000000;solid-opacity:1;fill:#000000;fill-opacity:1;fill-rule:nonzero;stroke:none;stroke-width:1;stroke-linecap:butt;stroke-linejoin:miter;stroke-miterlimit:4;stroke-dasharray:none;stroke-dashoffset:0;stroke-opacity:1;color-rendering:auto;image-rendering:auto;shape-rendering:auto;text-rendering:auto;enable-background:accumulate" d="m 8,1038.3622 c -0.277,0 -0.5,0.223 -0.5,0.5 l 0,2.6523 c -0.241947,0.143 -0.408186,0.378 -0.46289,0.6641 -0.379623,-0.3531 -0.837844,-0.6035 -1.337891,-0.7246 l 0,-0.6641 c 0,-0.2375 -0.19024,-0.4277 -0.427734,-0.4277 l -1.142578,0 c -0.237495,0 -0.429688,0.1902 -0.429688,0.4277 l 0,0.8809 C 2.696818,1042.1564 2,1043.1736 2,1044.3622 c 6.72e-4,0.4208 0.08984,0.8367 0.261719,1.2207 l 0.755859,3.5078 c 0.110082,0.7199 0.731715,1.2715 1.482422,1.2715 0.707405,0 1.300815,-0.4895 1.458985,-1.1484 l 0.832031,-2.4493 c 0.160153,-0.1191 0.308021,-0.2538 0.441406,-0.4023 l 1.53711,0 c 0.132771,0.1484 0.27998,0.2831 0.439453,0.4023 l 0.832031,2.4493 c 0.15817,0.6589 0.751579,1.1484 1.458984,1.1484 0.750707,0 1.37234,-0.5516 1.482422,-1.2715 l 0.753906,-3.5059 c 0.172817,-0.3845 0.26266,-0.801 0.263672,-1.2226 0,-1.1886 -0.696818,-2.2058 -1.699219,-2.6914 l 0,-0.8223 c 0,-0.2695 -0.216842,-0.4863 -0.486328,-0.4863 l -1.027344,0 c -0.269485,0 -0.486328,0.2168 -0.486328,0.4863 l 0,0.6035 c -0.499622,0.1208 -0.95819,0.372 -1.33789,0.7246 -0.05512,-0.2852 -0.221476,-0.5194 -0.462891,-0.6621 l 0,-2.6523 c 0,-0.277 -0.223,-0.5 -0.5,-0.5 z m 3.5,4 a 0.5,0.5000087 0 0 1 0.5,0.5 0.5,0.5000087 0 0 1 -0.5,0.5 0.5,0.5000087 0 0 1 -0.5,-0.5 0.5,0.5000087 0 0 1 0.5,-0.5 z m -7.300781,0.3008 1,0 0,1 1,0 0,1 -1,0 0,1 -1,0 0,-1 -1,0 0,-1 1,0 0,-1 z M 10.5,1043.3622 a 0.5,0.5000087 0 0 1 0.5,0.5 0.5,0.5000087 0 0 1 -0.5,0.5 0.5,0.5000087 0 0 1 -0.5,-0.5 0.5,0.5000087 0 0 1 0.5,-0.5 z m 2,0 a 0.5,0.5000087 0 0 1 0.5,0.5 0.5,0.5000087 0 0 1 -0.5,0.5 0.5,0.5000087 0 0 1 -0.5,-0.5 0.5,0.5000087 0 0 1 0.5,-0.5 z m -1,1 a 0.5,0.5000087 0 0 1 0.5,0.5 0.5,0.5000087 0 0 1 -0.5,0.5 0.5,0.5000087 0 0 1 -0.5,-0.5 0.5,0.5000087 0 0 1 0.5,-0.5 z"></path></g></svg></g><line x1="51.5" y1="0" x2="51.5" y2="100%" stroke="#1b5b5d" stroke-width="3"></line><path fill="#4784e0" fill-rule="nonzero" d="M2.81 15.75L2.81 15.75Q2.47 15.81 2.20 15.88Q1.93 15.96 1.54 15.96L1.54 15.96Q1.10 15.96 0.87 15.71Q0.63 15.47 0.63 15.16L0.63 15.16Q0.63 14.92 0.71 14.53Q0.80 14.13 0.80 13.73L0.80 13.73Q0.71 12.22 0.58 10.74Q0.45 9.26 0.32 8.03Q0.19 6.80 0.09 5.92Q0 5.05 0 4.73L0 4.73Q0 4.52 0.11 4.34Q0.21 4.16 0.40 4.02Q0.59 3.88 0.84 3.80Q1.09 3.73 1.37 3.73L1.37 3.73Q1.92 3.73 2.18 3.90Q2.44 4.07 2.50 4.44L2.50 4.44Q2.82 6.96 2.97 9.06Q3.12 11.17 3.18 13.01L3.18 13.01Q3.18 13.28 3.32 13.42Q3.47 13.56 3.70 13.56L3.70 13.56Q4.17 13.56 4.65 13.51Q5.13 13.45 5.61 13.39Q6.09 13.34 6.57 13.28Q7.04 13.23 7.49 13.23L7.49 13.23Q7.78 13.23 7.96 13.30Q8.14 13.37 8.24 13.49Q8.34 13.61 8.37 13.75Q8.40 13.90 8.40 14.04L8.40 14.04Q8.40 14.26 8.36 14.48Q8.31 14.71 8.19 14.89Q8.07 15.07 7.88 15.19Q7.68 15.32 7.37 15.34L7.37 15.34Q5.93 15.48 4.74 15.55Q3.55 15.62 2.81 15.75ZM8.72 11.06L8.72 11.06Q8.72 10.86 8.77 10.62Q8.81 10.37 8.81 10.08L8.81 10.08Q8.81 9.88 8.64 9.77Q8.47 9.67 8.26 9.54Q8.05 9.41 7.88 9.21Q7.71 9.01 7.71 8.64L7.71 8.64Q7.71 8.37 7.86 8.10Q8.00 7.83 8.29 7.61L8.29 7.61Q8.98 7.09 9.72 6.68Q10.46 6.27 11.21 5.99Q11.95 5.71 12.68 5.55Q13.41 5.40 14.07 5.40L14.07 5.40Q15.20 5.40 16.19 5.82Q17.18 6.23 17.91 6.96Q18.64 7.68 19.07 8.64Q19.50 9.61 19.50 10.71L19.50 10.71Q19.50 11.79 19.05 12.76Q18.60 13.72 17.84 14.45Q17.07 15.18 16.05 15.60Q15.02 16.03 13.89 16.03L13.89 16.03Q12.77 16.03 11.82 15.66Q10.88 15.28 10.18 14.62Q9.49 13.96 9.11 13.05Q8.72 12.14 8.72 11.06ZM14.14 13.92L14.14 13.92Q14.64 13.92 15.16 13.72Q15.69 13.52 16.13 13.14Q16.57 12.76 16.86 12.21Q17.14 11.66 17.14 10.97L17.14 10.97Q17.14 10.27 16.89 9.66Q16.63 9.05 16.18 8.60Q15.73 8.14 15.11 7.89Q14.50 7.63 13.78 7.63L13.78 7.63Q12.48 7.63 11.79 8.30Q11.10 8.98 11.10 10.37L11.10 10.37Q11.10 11.13 11.33 11.78Q11.55 12.43 11.96 12.91Q12.38 13.38 12.93 13.65Q13.49 13.92 14.14 13.92ZM21.49 12.25L21.49 12.25Q21.27 9.50 20.98 6.80Q20.70 4.09 20.14 1.39L20.14 1.39Q20.12 1.30 20.12 1.22Q20.12 1.15 20.12 1.08L20.12 1.08Q20.12 0.81 20.23 0.61Q20.34 0.41 20.53 0.28Q20.72 0.14 20.96 0.07Q21.20 0 21.47 0L21.47 0Q22.18 0 22.45 0.67L22.45 0.67Q22.57 1.01 22.69 1.64Q22.82 2.27 22.95 3.11Q23.09 3.94 23.21 4.93Q23.34 5.92 23.46 6.96L23.46 6.96Q23.50 7.25 23.65 7.25L23.65 7.25Q23.78 7.25 23.92 7.08L23.92 7.08Q25.63 4.83 27.97 4.83L27.97 4.83Q28.85 4.83 29.61 5.21Q30.38 5.60 30.94 6.27Q31.50 6.94 31.82 7.85Q32.14 8.77 32.14 9.82L32.14 9.82Q32.14 10.80 31.83 11.65Q31.52 12.49 30.97 13.10Q30.42 13.71 29.67 14.06Q28.91 14.40 28.02 14.40L28.02 14.40Q26.92 14.40 25.86 13.97Q24.81 13.55 23.87 12.82L23.87 12.82Q23.77 12.73 23.65 12.73L23.65 12.73Q23.50 12.73 23.37 12.89L23.37 12.89Q23.18 13.10 22.97 13.17Q22.76 13.23 22.45 13.23L22.45 13.23Q21.53 13.23 21.49 12.25ZM27.56 7.01L27.56 7.01Q27.09 7.01 26.63 7.22Q26.17 7.44 25.76 7.84Q25.35 8.24 25.00 8.79Q24.66 9.35 24.42 10.03L24.42 10.03Q24.40 10.07 24.39 10.14Q24.38 10.21 24.38 10.25L24.38 10.25Q24.38 10.45 24.52 10.56L24.52 10.56Q24.94 10.92 25.39 11.24Q25.84 11.55 26.29 11.79Q26.73 12.02 27.16 12.16Q27.60 12.29 27.97 12.29L27.97 12.29Q28.82 12.29 29.26 11.80Q29.70 11.31 29.70 10.37L29.70 10.37Q29.70 9.64 29.53 9.03Q29.37 8.41 29.09 7.96Q28.80 7.51 28.41 7.26Q28.02 7.01 27.56 7.01ZM33.84 11.06L33.84 11.06Q33.84 10.86 33.89 10.62Q33.94 10.37 33.94 10.08L33.94 10.08Q33.94 9.88 33.77 9.77Q33.60 9.67 33.39 9.54Q33.18 9.41 33.01 9.21Q32.84 9.01 32.84 8.64L32.84 8.64Q32.84 8.37 32.98 8.10Q33.13 7.83 33.41 7.61L33.41 7.61Q34.10 7.09 34.85 6.68Q35.59 6.27 36.33 5.99Q37.08 5.71 37.80 5.55Q38.53 5.40 39.20 5.40L39.20 5.40Q40.32 5.40 41.31 5.82Q42.30 6.23 43.04 6.96Q43.77 7.68 44.20 8.64Q44.63 9.61 44.63 10.71L44.63 10.71Q44.63 11.79 44.17 12.76Q43.72 13.72 42.96 14.45Q42.20 15.18 41.17 15.60Q40.15 16.03 39.01 16.03L39.01 16.03Q37.90 16.03 36.95 15.66Q36 15.28 35.31 14.62Q34.62 13.96 34.23 13.05Q33.84 12.14 33.84 11.06ZM39.27 13.92L39.27 13.92Q39.76 13.92 40.29 13.72Q40.82 13.52 41.26 13.14Q41.70 12.76 41.98 12.21Q42.27 11.66 42.27 10.97L42.27 10.97Q42.27 10.27 42.01 9.66Q41.75 9.05 41.30 8.60Q40.85 8.14 40.24 7.89Q39.62 7.63 38.91 7.63L38.91 7.63Q37.61 7.63 36.91 8.30Q36.22 8.98 36.22 10.37L36.22 10.37Q36.22 11.13 36.45 11.78Q36.68 12.43 37.09 12.91Q37.50 13.38 38.06 13.65Q38.61 13.92 39.27 13.92ZM51.01 2.84L51.01 2.84Q51.26 2.68 51.52 2.63Q51.77 2.57 52.00 2.57L52.00 2.57Q52.29 2.57 52.52 2.67Q52.76 2.77 52.92 2.92Q53.09 3.07 53.17 3.26Q53.26 3.46 53.26 3.64L53.26 3.64Q53.26 3.90 53.09 4.14Q52.92 4.37 52.62 4.54L52.62 4.54Q52.01 4.89 51.60 5.13Q51.19 5.38 50.90 5.58Q50.61 5.78 50.40 5.95Q50.19 6.13 49.98 6.34L49.98 6.34Q49.68 6.62 49.39 6.98Q49.11 7.35 48.90 7.71Q48.68 8.06 48.54 8.39Q48.41 8.72 48.41 8.93L48.41 8.93Q48.41 9.11 48.50 9.21Q48.60 9.32 48.77 9.32L48.77 9.32Q48.96 9.32 49.18 9.19L49.18 9.19Q49.90 8.79 50.69 8.47Q51.48 8.16 52.29 7.93Q53.10 7.71 53.91 7.60Q54.71 7.49 55.48 7.49L55.48 7.49Q56.68 7.49 57.69 7.75Q58.70 8.02 59.43 8.48Q60.15 8.95 60.55 9.62Q60.95 10.28 60.95 11.06L60.95 11.06Q60.95 11.94 60.45 12.75Q59.94 13.56 59.06 14.17Q58.18 14.78 56.99 15.14Q55.79 15.50 54.41 15.50L54.41 15.50Q52.57 15.50 51.04 15.12Q49.51 14.74 48.42 14.06Q47.32 13.38 46.72 12.44Q46.11 11.50 46.11 10.37L46.11 10.37Q46.11 9.26 46.42 8.19Q46.73 7.11 47.35 6.15Q47.96 5.18 48.88 4.34Q49.79 3.50 51.01 2.84ZM58.59 11.47L58.59 11.47Q58.59 11.07 58.34 10.75Q58.09 10.42 57.64 10.18Q57.19 9.95 56.55 9.82Q55.91 9.69 55.14 9.69L55.14 9.69Q53.67 9.69 52.27 10.10Q50.87 10.50 49.64 11.26L49.64 11.26Q49.35 11.45 49.35 11.72L49.35 11.72Q49.35 11.91 49.56 12.10Q49.77 12.29 50.13 12.47Q50.50 12.64 50.99 12.81Q51.48 12.97 52.03 13.09Q52.58 13.21 53.17 13.28Q53.75 13.35 54.32 13.35L54.32 13.35Q55.22 13.35 56.00 13.20Q56.78 13.05 57.36 12.80Q57.94 12.55 58.27 12.21Q58.59 11.87 58.59 11.47ZM68.65 4.71L68.65 4.71Q69.29 4.71 69.89 4.91Q70.49 5.11 70.95 5.46Q71.40 5.81 71.68 6.30Q71.95 6.80 71.95 7.39L71.95 7.39Q71.95 7.64 71.84 7.87Q71.73 8.10 71.54 8.27Q71.36 8.44 71.12 8.54Q70.88 8.64 70.62 8.64L70.62 8.64Q70.59 8.64 70.58 8.64Q70.56 8.65 70.54 8.65L70.54 8.65Q70.51 8.66 70.49 8.66L70.49 8.66L70.54 9.60Q70.58 11.27 71.01 12.05Q71.44 12.82 72.13 12.82L72.13 12.82Q72.38 12.82 72.57 12.77Q72.76 12.73 72.93 12.66Q73.10 12.60 73.25 12.55Q73.41 12.50 73.56 12.50L73.56 12.50Q73.83 12.50 74.03 12.74Q74.24 12.97 74.24 13.30L74.24 13.30Q74.24 13.63 73.99 13.96Q73.73 14.29 73.32 14.55Q72.91 14.81 72.40 14.98Q71.88 15.14 71.36 15.14L71.36 15.14Q70.44 15.14 69.75 14.38Q69.06 13.63 68.77 12.16L68.77 12.16Q68.70 11.93 68.58 11.93L68.58 11.93Q68.44 11.93 68.33 12.07L68.33 12.07Q67.17 13.54 65.86 14.27Q64.55 15 63.27 15L63.27 15Q62.67 15 62.19 14.82Q61.71 14.65 61.38 14.33Q61.04 14.00 60.86 13.54Q60.68 13.08 60.68 12.50L60.68 12.50Q60.68 11.70 61.04 10.80Q61.39 9.91 62.00 9.05Q62.61 8.18 63.42 7.39Q64.22 6.61 65.10 6.01Q65.99 5.41 66.90 5.06Q67.82 4.71 68.65 4.71ZM68.26 8.77L68.26 8.77Q68.47 8.37 68.65 8.19Q68.82 8.00 69.15 7.95L69.15 7.95Q69.41 7.91 69.41 7.78L69.41 7.78Q69.41 7.69 69.34 7.58L69.34 7.58Q69.12 7.28 68.87 7.05Q68.63 6.82 68.21 6.82L68.21 6.82Q67.77 6.82 67.22 7.08Q66.67 7.34 66.10 7.76Q65.53 8.19 64.99 8.74Q64.44 9.28 64.02 9.86Q63.60 10.43 63.34 10.99Q63.08 11.55 63.08 12L63.08 12Q63.08 12.40 63.30 12.62Q63.52 12.84 63.89 12.84L63.89 12.84Q64.85 12.84 65.99 11.82Q67.13 10.80 68.26 8.77ZM75.66 15.46L75.66 15.46Q75.57 13.90 75.39 12.58Q75.21 11.26 75.02 10.28Q74.82 9.29 74.68 8.68Q74.53 8.07 74.53 7.92L74.53 7.92Q74.53 7.70 74.70 7.49Q74.87 7.28 75.13 7.12Q75.39 6.96 75.69 6.87Q75.98 6.77 76.23 6.77L76.23 6.77Q76.43 6.77 76.58 6.84Q76.72 6.91 76.78 7.08L76.78 7.08Q76.84 7.28 76.89 7.49Q76.95 7.71 77.00 8.02L77.00 8.02Q77.07 8.45 77.19 8.45L77.19 8.45Q77.32 8.45 77.48 8.06L77.48 8.06Q77.72 7.52 77.99 7.17Q78.26 6.82 78.57 6.62Q78.88 6.41 79.21 6.33Q79.55 6.25 79.91 6.25L79.91 6.25Q81.01 6.25 81.78 7.11Q82.55 7.98 82.98 9.62L82.98 9.62Q83.04 9.81 83.09 9.86Q83.13 9.91 83.19 9.91L83.19 9.91Q83.25 9.91 83.31 9.86Q83.38 9.81 83.44 9.64L83.44 9.64Q83.72 8.88 84.09 8.35Q84.47 7.82 84.87 7.48Q85.28 7.15 85.70 7.00Q86.12 6.84 86.51 6.84L86.51 6.84Q87.22 6.84 87.80 7.37Q88.38 7.89 88.83 8.97Q89.29 10.05 89.62 11.71Q89.95 13.37 90.18 15.64L90.18 15.64Q90.18 16.28 89.79 16.53Q89.40 16.78 88.73 16.78L88.73 16.78Q88.30 16.78 88.05 16.59Q87.81 16.41 87.77 16.10L87.77 16.10Q87.62 14.47 87.44 13.20Q87.26 11.93 87.05 11.06Q86.84 10.18 86.58 9.73Q86.33 9.27 86.03 9.27L86.03 9.27Q85.88 9.27 85.65 9.49Q85.42 9.71 85.16 10.31Q84.90 10.90 84.62 11.92Q84.34 12.95 84.08 14.54L84.08 14.54Q84.01 14.99 83.65 15.22Q83.30 15.46 82.78 15.46L82.78 15.46Q82.18 15.46 81.96 15.27Q81.73 15.08 81.70 14.64L81.70 14.64Q81.66 13.86 81.54 13.10Q81.43 12.33 81.27 11.63Q81.11 10.93 80.91 10.34Q80.71 9.75 80.48 9.31Q80.26 8.87 80.03 8.63Q79.79 8.38 79.57 8.38L79.57 8.38Q79.28 8.38 79.00 8.79Q78.73 9.20 78.51 9.95Q78.29 10.70 78.16 11.75Q78.04 12.81 78.04 14.11L78.04 14.11Q78.04 14.33 78.05 14.55Q78.06 14.77 78.06 15L78.06 15Q78.06 15.35 77.95 15.57Q77.84 15.80 77.63 15.93Q77.43 16.05 77.16 16.10Q76.89 16.15 76.57 16.15L76.57 16.15Q76.28 16.15 76.10 16.11Q75.93 16.07 75.83 15.98Q75.74 15.90 75.70 15.77Q75.67 15.63 75.66 15.46ZM101.63 12.39L101.63 12.39Q101.96 12.09 102.29 12.09L102.29 12.09Q102.48 12.09 102.63 12.19Q102.79 12.28 102.97 12.48L102.97 12.48Q103.15 12.75 103.22 12.92Q103.30 13.09 103.30 13.25L103.30 13.25Q103.30 13.61 102.95 13.92L102.95 13.92Q102.39 14.39 101.73 14.76Q101.07 15.13 100.36 15.39Q99.64 15.64 98.88 15.78Q98.12 15.91 97.37 15.91L97.37 15.91Q96.42 15.91 95.59 15.67Q94.76 15.43 94.11 14.99Q93.46 14.54 93.01 13.92Q92.57 13.29 92.38 12.50L92.38 12.50Q92.27 12.18 92.19 12.08Q92.10 11.98 91.90 11.98L91.90 11.98Q91.46 11.98 91.23 11.77Q91.00 11.55 91.00 11.16L91.00 11.16Q91.00 10.99 91.02 10.95L91.02 10.95L91.04 10.71Q91.10 10.29 91.27 10.10Q91.44 9.91 91.80 9.91L91.80 9.91L91.98 9.91Q92.47 9.91 92.67 9.46L92.67 9.46Q93.04 8.65 93.60 7.98Q94.16 7.31 94.86 6.84Q95.57 6.36 96.37 6.10Q97.17 5.84 98.00 5.84L98.00 5.84Q98.87 5.84 99.63 6.09Q100.38 6.34 100.95 6.79Q101.51 7.23 101.83 7.83Q102.15 8.43 102.15 9.12L102.15 9.12Q102.15 9.60 101.96 10.00Q101.78 10.39 101.43 10.69Q101.07 10.99 100.58 11.18Q100.08 11.37 99.45 11.43L99.45 11.43L95.38 11.84Q95.14 11.84 95.00 11.95Q94.85 12.07 94.85 12.27L94.85 12.27Q94.85 12.57 95.08 12.86Q95.31 13.14 95.69 13.35Q96.07 13.57 96.57 13.70Q97.07 13.83 97.59 13.83L97.59 13.83Q98.10 13.83 98.63 13.73Q99.16 13.63 99.69 13.44Q100.21 13.25 100.70 12.99Q101.19 12.73 101.63 12.39ZM99.01 9.36L99.01 9.36Q99.19 9.33 99.32 9.19Q99.45 9.06 99.45 8.86L99.45 8.86Q99.45 8.68 99.32 8.53Q99.19 8.38 98.96 8.26Q98.74 8.13 98.45 8.06Q98.16 7.99 97.83 7.99L97.83 7.99Q97.35 7.99 96.84 8.13Q96.34 8.27 95.93 8.50Q95.52 8.73 95.26 9.01Q95.00 9.28 95.00 9.55L95.00 9.55Q95.00 9.82 95.33 9.82L95.33 9.82Q95.53 9.82 95.98 9.77Q96.42 9.73 96.96 9.66Q97.50 9.60 98.05 9.52Q98.60 9.43 99.01 9.36ZM110.39 6.19L110.39 6.19Q109.96 6.19 109.63 6.42Q109.30 6.64 109.07 7.05Q108.83 7.45 108.68 8.00Q108.53 8.54 108.43 9.19Q108.34 9.83 108.30 10.54Q108.27 11.24 108.27 11.95L108.27 11.95Q108.27 12.89 108.35 13.80Q108.42 14.71 108.42 15.48L108.42 15.48Q108.42 15.98 108.05 16.27Q107.67 16.56 106.98 16.56L106.98 16.56Q106.85 16.56 106.69 16.54Q106.52 16.51 106.38 16.44Q106.23 16.37 106.12 16.25Q106.01 16.13 106.00 15.91L106.00 15.91Q105.89 14.88 105.69 13.80Q105.49 12.73 105.19 11.65Q104.89 10.58 104.48 9.53Q104.06 8.47 103.52 7.46L103.52 7.46Q103.43 7.29 103.37 7.14Q103.30 6.98 103.30 6.84L103.30 6.84Q103.30 6.67 103.46 6.46Q103.62 6.26 103.86 6.08Q104.10 5.91 104.38 5.79Q104.67 5.68 104.94 5.68L104.94 5.68Q105.39 5.68 105.73 6.30Q106.07 6.91 106.36 8.26L106.36 8.26Q106.42 8.50 106.45 8.59Q106.49 8.68 106.55 8.68L106.55 8.68Q106.68 8.68 106.71 8.29L106.71 8.29Q106.85 7.17 107.19 6.37Q107.53 5.57 108.04 5.04Q108.55 4.52 109.21 4.28Q109.88 4.03 110.67 4.03L110.67 4.03Q111.13 4.03 111.60 4.11Q112.07 4.20 112.44 4.36Q112.82 4.52 113.05 4.76Q113.29 4.99 113.29 5.29L113.29 5.29Q113.29 5.50 113.20 5.78Q113.11 6.07 112.97 6.33Q112.83 6.60 112.65 6.78Q112.46 6.96 112.28 6.96L112.28 6.96Q112.07 6.96 111.87 6.84Q111.67 6.71 111.44 6.57Q111.21 6.43 110.96 6.31Q110.71 6.19 110.39 6.19Z" transform="translate(65 18.11)"></path></svg>